<mxfile host="app.diagrams.net" agent="Mozilla/5.0 (Windows NT 10.0; Win64; x64) AppleWebKit/537.36 (KHTML, like Gecko) Chrome/131.0.0.0 Safari/537.36" version="25.0.3">
  <diagram name="Страница — 1" id="7zzQs1B6N3BzhSOS5rqg">
    <mxGraphModel dx="1059" dy="616" grid="1" gridSize="10" guides="1" tooltips="1" connect="1" arrows="1" fold="1" page="1" pageScale="1" pageWidth="827" pageHeight="1169" math="0" shadow="0">
      <root>
        <mxCell id="0" />
        <mxCell id="1" parent="0" />
        <mxCell id="vKPOdS-y9cwEIovh6uxc-28" value="" style="rounded=0;whiteSpace=wrap;html=1;" vertex="1" parent="1">
          <mxGeometry x="20" y="170" width="780" height="410" as="geometry" />
        </mxCell>
        <mxCell id="vKPOdS-y9cwEIovh6uxc-8" value="" style="edgeStyle=orthogonalEdgeStyle;rounded=0;orthogonalLoop=1;jettySize=auto;html=1;startArrow=block;startFill=0;endArrow=none;endFill=0;dashed=1;dashPattern=8 8;" edge="1" parent="1" source="vKPOdS-y9cwEIovh6uxc-1" target="vKPOdS-y9cwEIovh6uxc-6">
          <mxGeometry relative="1" as="geometry" />
        </mxCell>
        <mxCell id="vKPOdS-y9cwEIovh6uxc-13" value="" style="edgeStyle=orthogonalEdgeStyle;rounded=0;orthogonalLoop=1;jettySize=auto;html=1;startArrow=block;startFill=0;endArrow=none;endFill=0;dashed=1;dashPattern=8 8;" edge="1" parent="1" source="vKPOdS-y9cwEIovh6uxc-1" target="vKPOdS-y9cwEIovh6uxc-11">
          <mxGeometry relative="1" as="geometry" />
        </mxCell>
        <mxCell id="vKPOdS-y9cwEIovh6uxc-1" value="&amp;lt;&amp;lt;interface&amp;gt;&amp;gt;&lt;div&gt;&lt;b&gt;IceCream&lt;/b&gt;&lt;/div&gt;" style="swimlane;fontStyle=0;childLayout=stackLayout;horizontal=1;startSize=30;fillColor=none;horizontalStack=0;resizeParent=1;resizeParentMax=0;resizeLast=0;collapsible=1;marginBottom=0;whiteSpace=wrap;html=1;" vertex="1" parent="1">
          <mxGeometry x="340" y="190" width="140" height="60" as="geometry" />
        </mxCell>
        <mxCell id="vKPOdS-y9cwEIovh6uxc-5" value="cost()" style="text;html=1;align=left;verticalAlign=middle;resizable=0;points=[];autosize=1;strokeColor=none;fillColor=none;spacingLeft=4;" vertex="1" parent="vKPOdS-y9cwEIovh6uxc-1">
          <mxGeometry y="30" width="140" height="30" as="geometry" />
        </mxCell>
        <mxCell id="vKPOdS-y9cwEIovh6uxc-6" value="&lt;u&gt;EmptyIceCreamCone&lt;/u&gt;" style="swimlane;fontStyle=0;childLayout=stackLayout;horizontal=1;startSize=30;fillColor=none;horizontalStack=0;resizeParent=1;resizeParentMax=0;resizeLast=0;collapsible=1;marginBottom=0;whiteSpace=wrap;html=1;" vertex="1" parent="1">
          <mxGeometry x="100" y="310" width="150" height="80" as="geometry" />
        </mxCell>
        <mxCell id="vKPOdS-y9cwEIovh6uxc-7" value="&lt;div&gt;EmptyIceCreamCone()&lt;/div&gt;cost()" style="text;html=1;align=left;verticalAlign=middle;resizable=0;points=[];autosize=1;strokeColor=none;fillColor=none;spacingLeft=4;spacingBottom=10;" vertex="1" parent="vKPOdS-y9cwEIovh6uxc-6">
          <mxGeometry y="30" width="150" height="50" as="geometry" />
        </mxCell>
        <mxCell id="vKPOdS-y9cwEIovh6uxc-11" value="&lt;u&gt;IceCreamDecorator&lt;/u&gt;" style="swimlane;fontStyle=0;childLayout=stackLayout;horizontal=1;startSize=30;fillColor=none;horizontalStack=0;resizeParent=1;resizeParentMax=0;resizeLast=0;collapsible=1;marginBottom=0;whiteSpace=wrap;html=1;" vertex="1" parent="1">
          <mxGeometry x="315" y="320" width="190" height="80" as="geometry" />
        </mxCell>
        <mxCell id="vKPOdS-y9cwEIovh6uxc-12" value="&lt;div&gt;IceCreamDecorator(IceCream)&lt;/div&gt;cost()" style="text;html=1;align=left;verticalAlign=middle;resizable=0;points=[];autosize=1;strokeColor=none;fillColor=none;spacingLeft=4;spacingBottom=10;" vertex="1" parent="vKPOdS-y9cwEIovh6uxc-11">
          <mxGeometry y="30" width="190" height="50" as="geometry" />
        </mxCell>
        <mxCell id="vKPOdS-y9cwEIovh6uxc-16" value="&lt;u&gt;BasicIceCream&lt;/u&gt;" style="swimlane;fontStyle=0;childLayout=stackLayout;horizontal=1;startSize=30;fillColor=none;horizontalStack=0;resizeParent=1;resizeParentMax=0;resizeLast=0;collapsible=1;marginBottom=0;whiteSpace=wrap;html=1;" vertex="1" parent="1">
          <mxGeometry x="35" y="480" width="170" height="80" as="geometry" />
        </mxCell>
        <mxCell id="vKPOdS-y9cwEIovh6uxc-17" value="&lt;div&gt;&lt;span style=&quot;background-color: initial; text-wrap-mode: wrap; text-align: center;&quot;&gt;BasicIceCream&lt;/span&gt;(IceCream)&lt;/div&gt;cost()" style="text;html=1;align=left;verticalAlign=middle;resizable=0;points=[];autosize=1;strokeColor=none;fillColor=none;spacingLeft=4;spacingBottom=10;" vertex="1" parent="vKPOdS-y9cwEIovh6uxc-16">
          <mxGeometry y="30" width="170" height="50" as="geometry" />
        </mxCell>
        <mxCell id="vKPOdS-y9cwEIovh6uxc-18" value="&lt;u&gt;ChocolateIceCream&lt;/u&gt;" style="swimlane;fontStyle=0;childLayout=stackLayout;horizontal=1;startSize=30;fillColor=none;horizontalStack=0;resizeParent=1;resizeParentMax=0;resizeLast=0;collapsible=1;marginBottom=0;whiteSpace=wrap;html=1;" vertex="1" parent="1">
          <mxGeometry x="225" y="480" width="180" height="80" as="geometry" />
        </mxCell>
        <mxCell id="vKPOdS-y9cwEIovh6uxc-19" value="&lt;div&gt;&lt;span style=&quot;background-color: initial; text-wrap-mode: wrap; text-align: center;&quot;&gt;ChocolateIceCream&lt;/span&gt;(IceCream)&lt;/div&gt;cost()" style="text;html=1;align=left;verticalAlign=middle;resizable=0;points=[];autosize=1;strokeColor=none;fillColor=none;spacingLeft=4;spacingBottom=10;" vertex="1" parent="vKPOdS-y9cwEIovh6uxc-18">
          <mxGeometry y="30" width="180" height="50" as="geometry" />
        </mxCell>
        <mxCell id="vKPOdS-y9cwEIovh6uxc-20" value="&lt;u&gt;MintIceCream&lt;/u&gt;" style="swimlane;fontStyle=0;childLayout=stackLayout;horizontal=1;startSize=30;fillColor=none;horizontalStack=0;resizeParent=1;resizeParentMax=0;resizeLast=0;collapsible=1;marginBottom=0;whiteSpace=wrap;html=1;" vertex="1" parent="1">
          <mxGeometry x="425" y="480" width="170" height="80" as="geometry" />
        </mxCell>
        <mxCell id="vKPOdS-y9cwEIovh6uxc-21" value="&lt;div&gt;&lt;span style=&quot;background-color: initial; text-wrap-mode: wrap; text-align: center;&quot;&gt;MintIceCream&lt;/span&gt;(IceCream)&lt;/div&gt;cost()" style="text;html=1;align=left;verticalAlign=middle;resizable=0;points=[];autosize=1;strokeColor=none;fillColor=none;spacingLeft=4;spacingBottom=10;" vertex="1" parent="vKPOdS-y9cwEIovh6uxc-20">
          <mxGeometry y="30" width="170" height="50" as="geometry" />
        </mxCell>
        <mxCell id="vKPOdS-y9cwEIovh6uxc-22" value="&lt;u&gt;VanillaIceCream&lt;/u&gt;" style="swimlane;fontStyle=0;childLayout=stackLayout;horizontal=1;startSize=30;fillColor=none;horizontalStack=0;resizeParent=1;resizeParentMax=0;resizeLast=0;collapsible=1;marginBottom=0;whiteSpace=wrap;html=1;" vertex="1" parent="1">
          <mxGeometry x="615" y="480" width="170" height="80" as="geometry" />
        </mxCell>
        <mxCell id="vKPOdS-y9cwEIovh6uxc-23" value="&lt;div&gt;&lt;span style=&quot;background-color: initial; text-wrap-mode: wrap; text-align: center;&quot;&gt;VanillaIceCream&lt;/span&gt;(IceCream)&lt;/div&gt;cost()" style="text;html=1;align=left;verticalAlign=middle;resizable=0;points=[];autosize=1;strokeColor=none;fillColor=none;spacingLeft=4;spacingBottom=10;" vertex="1" parent="vKPOdS-y9cwEIovh6uxc-22">
          <mxGeometry y="30" width="170" height="50" as="geometry" />
        </mxCell>
        <mxCell id="vKPOdS-y9cwEIovh6uxc-24" style="edgeStyle=orthogonalEdgeStyle;rounded=0;orthogonalLoop=1;jettySize=auto;html=1;exitX=0.75;exitY=0;exitDx=0;exitDy=0;entryX=0.129;entryY=1.011;entryDx=0;entryDy=0;entryPerimeter=0;endArrow=block;endFill=0;" edge="1" parent="1" source="vKPOdS-y9cwEIovh6uxc-16" target="vKPOdS-y9cwEIovh6uxc-12">
          <mxGeometry relative="1" as="geometry" />
        </mxCell>
        <mxCell id="vKPOdS-y9cwEIovh6uxc-25" style="edgeStyle=orthogonalEdgeStyle;rounded=0;orthogonalLoop=1;jettySize=auto;html=1;exitX=0.831;exitY=-0.021;exitDx=0;exitDy=0;entryX=0.31;entryY=0.996;entryDx=0;entryDy=0;entryPerimeter=0;exitPerimeter=0;endArrow=block;endFill=0;" edge="1" parent="1" source="vKPOdS-y9cwEIovh6uxc-18" target="vKPOdS-y9cwEIovh6uxc-12">
          <mxGeometry relative="1" as="geometry" />
        </mxCell>
        <mxCell id="vKPOdS-y9cwEIovh6uxc-26" style="edgeStyle=orthogonalEdgeStyle;rounded=0;orthogonalLoop=1;jettySize=auto;html=1;exitX=0.25;exitY=0;exitDx=0;exitDy=0;entryX=0.869;entryY=0.989;entryDx=0;entryDy=0;entryPerimeter=0;endArrow=block;endFill=0;" edge="1" parent="1" source="vKPOdS-y9cwEIovh6uxc-22" target="vKPOdS-y9cwEIovh6uxc-12">
          <mxGeometry relative="1" as="geometry" />
        </mxCell>
        <mxCell id="vKPOdS-y9cwEIovh6uxc-27" style="edgeStyle=orthogonalEdgeStyle;rounded=0;orthogonalLoop=1;jettySize=auto;html=1;exitX=0.104;exitY=0.007;exitDx=0;exitDy=0;exitPerimeter=0;entryX=0.672;entryY=1;entryDx=0;entryDy=0;entryPerimeter=0;endArrow=block;endFill=0;" edge="1" parent="1" source="vKPOdS-y9cwEIovh6uxc-20" target="vKPOdS-y9cwEIovh6uxc-12">
          <mxGeometry relative="1" as="geometry">
            <mxPoint x="459" y="470" as="sourcePoint" />
            <mxPoint x="459" y="400" as="targetPoint" />
          </mxGeometry>
        </mxCell>
      </root>
    </mxGraphModel>
  </diagram>
</mxfile>
